<svg xmlns="http://www.w3.org/2000/svg" viewBox="0 0 1080 1080" width="1080" height="1080" preserveAspectRatio="xMidYMid meet" style="width: 100%; height: 100%; transform: translate3d(0px, 0px, 0px);"><defs><clipPath id="__lottie_element_79"><rect width="1080" height="1080" x="0" y="0"></rect></clipPath></defs><g clip-path="url(#__lottie_element_79)"><g transform="matrix(3.4999918937683105,0.007513636723160744,-0.007513636723160744,3.4999918937683105,182.67660522460938,206.83999633789062)" opacity="1" style="display: block;"><g opacity="1" transform="matrix(1,0,0,1,99.34100341796875,96.97899627685547)"><path fill="rgb(255,115,113)" fill-opacity="1" d=" M96.96900177001953,7.013000011444092 C96.96900177001953,7.013000011444092 83.75299835205078,5.031000137329102 83.75299835205078,5.031000137329102 C80.48300170898438,4.539999961853027 78.01799774169922,1.6959999799728394 78.15599822998047,-1.6080000400543213 C78.1969985961914,-2.572999954223633 78.21900177001953,-3.5429999828338623 78.21900177001953,-4.51800012588501 C78.21900177001953,-14.048999786376953 76.4010009765625,-23.15399932861328 73.10199737548828,-31.51300048828125 C71.86599731445312,-34.64099884033203 73.10700225830078,-38.191001892089844 76.0780029296875,-39.763999938964844 C76.0780029296875,-39.763999938964844 83.89700317382812,-43.90299987792969 83.89700317382812,-43.90299987792969 C85.0199966430664,-44.49700164794922 85.4489974975586,-45.89099884033203 84.85399627685547,-47.01300048828125 C84.25800323486328,-48.13399887084961 82.86900329589844,-48.56800079345703 81.74299621582031,-47.970001220703125 C81.74299621582031,-47.970001220703125 73.90499877929688,-43.81999969482422 73.90499877929688,-43.81999969482422 C70.93699645996094,-42.249000549316406 67.30699920654297,-43.215999603271484 65.41300201416016,-45.98899841308594 C62.07500076293945,-50.87900161743164 58.16400146484375,-55.34400177001953 53.7760009765625,-59.290000915527344 C51.27799987792969,-61.5369987487793 50.80099868774414,-65.26399993896484 52.75400161743164,-67.99800109863281 C52.75400161743164,-67.99800109863281 63.983001708984375,-83.71700286865234 63.983001708984375,-83.71700286865234 C64.72200012207031,-84.7509994506836 64.48200225830078,-86.18800354003906 63.446998596191406,-86.927001953125 C62.41600036621094,-87.66200256347656 60.98099899291992,-87.42500305175781 60.2400016784668,-86.39199829101562 C60.2400016784668,-86.39199829101562 49.02199935913086,-70.68800354003906 49.02199935913086,-70.68800354003906 C47.06700134277344,-67.95099639892578 43.38199996948242,-67.19499969482422 40.44499969482422,-68.83499908447266 C35.2760009765625,-71.72000122070312 29.722000122070312,-73.99700164794922 23.8799991607666,-75.5770034790039 C20.658000946044922,-76.447998046875 18.56100082397461,-79.53399658203125 19.04400062561035,-82.83699798583984 C19.04400062561035,-82.83699798583984 20.66699981689453,-93.92500305175781 20.66699981689453,-93.92500305175781 C20.85099983215332,-95.18399810791016 19.98200035095215,-96.35199737548828 18.722999572753906,-96.53500366210938 C17.461999893188477,-96.72899627685547 16.297000885009766,-95.8489990234375 16.114999771118164,-94.59200286865234 C16.114999771118164,-94.59200286865234 14.513999938964844,-83.65499877929688 14.513999938964844,-83.65499877929688 C14.020999908447266,-80.28900146484375 11.029999732971191,-77.93399810791016 7.630000114440918,-78.08399963378906 C6.619999885559082,-78.12799835205078 5.605999946594238,-78.1520004272461 4.585000038146973,-78.1520004272461 C-1.6740000247955322,-78.1520004272461 -7.745999813079834,-77.35900115966797 -13.545999526977539,-75.88300323486328 C-16.79800033569336,-75.05599975585938 -20.15399932861328,-76.73999786376953 -21.336999893188477,-79.88200378417969 C-21.336999893188477,-79.88200378417969 -26.618000030517578,-93.91100311279297 -26.618000030517578,-93.91100311279297 C-27.06599998474121,-95.0999984741211 -28.395000457763672,-95.6989974975586 -29.58300018310547,-95.25299835205078 C-30.77199935913086,-94.80500030517578 -31.37299919128418,-93.47799682617188 -30.923999786376953,-92.28800201416016 C-30.923999786376953,-92.28800201416016 -25.64299964904785,-78.26100158691406 -25.64299964904785,-78.26100158691406 C-24.46299934387207,-75.1259994506836 -25.867000579833984,-71.6500015258789 -28.850000381469727,-70.1259994506836 C-32.486000061035156,-68.26699829101562 -35.94499969482422,-66.11499786376953 -39.19900131225586,-63.70100021362305 C-41.895999908447266,-61.70100021362305 -45.641998291015625,-61.9900016784668 -47.926998138427734,-64.44999694824219 C-47.926998138427734,-64.44999694824219 -53.55699920654297,-70.51300048828125 -53.55699920654297,-70.51300048828125 C-54.422000885009766,-71.44400024414062 -55.88100051879883,-71.4990005493164 -56.80799865722656,-70.63400268554688 C-57.73899841308594,-69.76899719238281 -57.792999267578125,-68.31300354003906 -56.926998138427734,-67.38099670410156 C-56.926998138427734,-67.38099670410156 -51.30400085449219,-61.32500076293945 -51.30400085449219,-61.32500076293945 C-49.018001556396484,-58.862998962402344 -49.012001037597656,-55.10599899291992 -51.20500183105469,-52.56100082397461 C-55.90800094604492,-47.10200119018555 -59.82099914550781,-40.944000244140625 -62.77299880981445,-34.26499938964844 C-64.12899780273438,-31.195999145507812 -67.52400207519531,-29.593000411987305 -70.7239990234375,-30.599000930786133 C-70.7239990234375,-30.599000930786133 -75.26200103759766,-32.025001525878906 -75.26200103759766,-32.025001525878906 C-76.48400115966797,-32.40700149536133 -77.76499938964844,-31.731000900268555 -78.14700317382812,-30.518999099731445 C-78.5270004272461,-29.30699920654297 -77.8550033569336,-28.014999389648438 -76.64199829101562,-27.634000778198242 C-76.64199829101562,-27.634000778198242 -72.10399627685547,-26.20800018310547 -72.10399627685547,-26.20800018310547 C-68.89800262451172,-25.200000762939453 -67.03299713134766,-21.937999725341797 -67.6780014038086,-18.638999938964844 C-68.572998046875,-14.069999694824219 -69.04900360107422,-9.350000381469727 -69.04900360107422,-4.51800012588501 C-69.04900360107422,-4.51800012588501 -69.04900360107422,-4.456999778747559 -69.04900360107422,-4.456999778747559 C-69.04499816894531,-1.0729999542236328 -71.48100280761719,1.809999942779541 -74.84200286865234,2.191999912261963 C-74.84200286865234,2.191999912261963 -96.9229965209961,4.701000213623047 -96.9229965209961,4.701000213623047 C-98.18599700927734,4.84499979019165 -99.09100341796875,5.984000205993652 -98.9469985961914,7.247000217437744 C-98.81400299072266,8.42199993133545 -97.81900024414062,9.288000106811523 -96.66300201416016,9.288000106811523 C-96.5780029296875,9.288000106811523 -96.48999786376953,9.284000396728516 -96.4010009765625,9.27400016784668 C-96.4010009765625,9.27400016784668 -74.31600189208984,6.763999938964844 -74.31600189208984,6.763999938964844 C-70.9749984741211,6.385000228881836 -67.9469985961914,8.614999771118164 -67.20099639892578,11.892999649047852 C-66.3740005493164,15.529999732971191 -65.2760009765625,19.06399917602539 -63.93199920654297,22.472999572753906 C-62.698001861572266,25.60300064086914 -63.9370002746582,29.155000686645508 -66.91000366210938,30.729000091552734 C-66.91000366210938,30.729000091552734 -74.72699737548828,34.867000579833984 -74.72699737548828,34.867000579833984 C-75.85099792480469,35.46200180053711 -76.27999877929688,36.85499954223633 -75.68399810791016,37.97800064086914 C-75.27100372314453,38.75699996948242 -74.4729995727539,39.20199966430664 -73.64900207519531,39.20199966430664 C-73.28700256347656,39.20199966430664 -72.91799926757812,39.117000579833984 -72.5739974975586,38.935001373291016 C-72.5739974975586,38.935001373291016 -64.73600006103516,34.78499984741211 -64.73600006103516,34.78499984741211 C-61.768001556396484,33.2140007019043 -58.137001037597656,34.17900085449219 -56.24399948120117,36.952999114990234 C-53.50299835205078,40.97100067138672 -50.37699890136719,44.702999114990234 -46.915000915527344,48.09600067138672 C-44.51599884033203,50.448001861572266 -44.20199966430664,54.191001892089844 -46.27000045776367,56.8380012512207 C-46.27000045776367,56.8380012512207 -54.755001068115234,67.69999694824219 -54.755001068115234,67.69999694824219 C-55.5369987487793,68.70099639892578 -55.35900115966797,70.14800262451172 -54.356998443603516,70.92900085449219 C-53.9370002746582,71.25700378417969 -53.4379997253418,71.41699981689453 -52.944000244140625,71.41699981689453 C-52.257999420166016,71.41699981689453 -51.582000732421875,71.11399841308594 -51.12799835205078,70.53299713134766 C-51.12799835205078,70.53299713134766 -42.64500045776367,59.67399978637695 -42.64500045776367,59.67399978637695 C-40.57600021362305,57.02799987792969 -36.867000579833984,56.42499923706055 -34.007999420166016,58.1879997253418 C-27.770999908447266,62.03300094604492 -20.917999267578125,64.97100067138672 -13.630000114440918,66.82499694824219 C-10.378999710083008,67.6520004272461 -8.23900032043457,70.73799896240234 -8.70199966430664,74.05999755859375 C-8.70199966430664,74.05999755859375 -11.50100040435791,94.11000061035156 -11.50100040435791,94.11000061035156 C-11.675999641418457,95.36799621582031 -10.798999786376953,96.53099822998047 -9.539999961853027,96.70600128173828 C-9.430000305175781,96.72200012207031 -9.324000358581543,96.72899627685547 -9.218999862670898,96.72899627685547 C-8.08899974822998,96.72899627685547 -7.1020002365112305,95.89600372314453 -6.942999839782715,94.74500274658203 C-6.942999839782715,94.74500274658203 -4.146999835968018,74.70700073242188 -4.146999835968018,74.70700073242188 C-3.690000057220459,71.43299865722656 -0.8600000143051147,68.98600006103516 2.444999933242798,69.08399963378906 C3.1559998989105225,69.1050033569336 3.86899995803833,69.11599731445312 4.585000038146973,69.11599731445312 C12.699000358581543,69.11599731445312 20.5049991607666,67.802001953125 27.805999755859375,65.37699890136719 C30.999000549316406,64.31700134277344 34.47800064086914,65.74400329589844 35.88800048828125,68.80000305175781 C35.88800048828125,68.80000305175781 43.91299819946289,86.18800354003906 43.91299819946289,86.18800354003906 C44.301998138427734,87.02899932861328 45.13600158691406,87.5250015258789 46.005001068115234,87.5250015258789 C46.32600021362305,87.5250015258789 46.654998779296875,87.45700073242188 46.96699905395508,87.31300354003906 C48.12200164794922,86.78099822998047 48.625999450683594,85.41300201416016 48.09400177001953,84.25900268554688 C48.09400177001953,84.25900268554688 40.05500030517578,66.84300231933594 40.05500030517578,66.84300231933594 C38.650001525878906,63.79999923706055 39.803001403808594,60.229000091552734 42.67100143432617,58.49300003051758 C46.14400100708008,56.393001556396484 49.43000030517578,54.01599884033203 52.494998931884766,51.388999938964844 C55.042999267578125,49.20600128173828 58.797000885009766,49.22800064086914 61.249000549316406,51.516998291015625 C61.249000549316406,51.516998291015625 72.0459976196289,61.59400177001953 72.0459976196289,61.59400177001953 C72.48999786376953,62.007999420166016 73.05400085449219,62.2130012512207 73.61499786376953,62.2130012512207 C74.23200225830078,62.2130012512207 74.84500122070312,61.96799850463867 75.29900360107422,61.481998443603516 C76.16400146484375,60.553001403808594 76.11499786376953,59.09700012207031 75.18800354003906,58.22999954223633 C75.18800354003906,58.22999954223633 64.38500213623047,48.14899826049805 64.38500213623047,48.14899826049805 C61.92599868774414,45.854000091552734 61.65599822998047,42.10200119018555 63.665000915527344,39.40399932861328 C69.16000366210938,32.02399826049805 73.3030014038086,23.579999923706055 75.73200225830078,14.437000274658203 C76.59400177001953,11.190999984741211 79.69999694824219,9.076000213623047 83.02200317382812,9.574999809265137 C83.02200317382812,9.574999809265137 96.28399658203125,11.564000129699707 96.28399658203125,11.564000129699707 C96.4020004272461,11.581000328063965 96.51599884033203,11.58899974822998 96.62799835205078,11.58899974822998 C97.75,11.58899974822998 98.73300170898438,10.770999908447266 98.90399932861328,9.630000114440918 C99.09200286865234,8.371999740600586 98.2249984741211,7.199999809265137 96.96900177001953,7.013000011444092z"></path></g></g><g transform="matrix(3.5,0,0,3.5,407.38165283203125,384.8420104980469)" opacity="1" style="display: block;"><g opacity="1" transform="matrix(1,0,0,1,25.0999698638916,12.448651313781738)"><path stroke-linecap="butt" stroke-linejoin="miter" fill-opacity="0" stroke-miterlimit="10" stroke="rgb(255,255,255)" stroke-opacity="1" stroke-width="2" d=" M11.505999565124512,0 C11.505999565124512,6.354000091552734 6.355000019073486,11.505000114440918 0.0010000000474974513,11.505000114440918 C-6.353000164031982,11.505000114440918 -11.505999565124512,6.354000091552734 -11.505999565124512,0 C-11.505999565124512,-6.354000091552734 -6.353000164031982,-11.505000114440918 0.0010000000474974513,-11.505000114440918 C6.355000019073486,-11.505000114440918 11.505999565124512,-6.354000091552734 11.505999565124512,0z"></path></g><g opacity="1" transform="matrix(1,0,0,1,39.04585266113281,86.7892837524414)"><path stroke-linecap="butt" stroke-linejoin="miter" fill-opacity="0" stroke-miterlimit="10" stroke="rgb(255,255,255)" stroke-opacity="1" stroke-width="2" d=" M4.6020002365112305,-0.0010000000474974513 C4.6020002365112305,2.5409998893737793 2.5409998893737793,4.603000164031982 -0.0010000000474974513,4.603000164031982 C-2.5420000553131104,4.603000164031982 -4.6020002365112305,2.5409998893737793 -4.6020002365112305,-0.0010000000474974513 C-4.6020002365112305,-2.5429999828338623 -2.5420000553131104,-4.603000164031982 -0.0010000000474974513,-4.603000164031982 C2.5409998893737793,-4.603000164031982 4.6020002365112305,-2.5429999828338623 4.6020002365112305,-0.0010000000474974513z"></path></g></g><g transform="matrix(3.5,0,0,3.5,396.5660095214844,320.9303894042969)" opacity="1" style="display: block;"><g opacity="1" transform="matrix(1,0,0,1,32.97200012207031,2.2160000801086426)"><path fill="rgb(52,48,75)" fill-opacity="1" d=" M2.3010001182556152,0 C2.3010001182556152,1.2710000276565552 1.2710000276565552,2.3010001182556152 0,2.3010001182556152 C-1.2710000276565552,2.3010001182556152 -2.3010001182556152,1.2710000276565552 -2.3010001182556152,0 C-2.3010001182556152,-1.2710000276565552 -1.2710000276565552,-2.3010001182556152 0,-2.3010001182556152 C1.2710000276565552,-2.3010001182556152 2.3010001182556152,-1.2710000276565552 2.3010001182556152,0z"></path></g><g opacity="1" transform="matrix(1,0,0,1,76.67720031738281,23.12080192565918)"><path fill="rgb(52,48,75)" fill-opacity="1" d=" M4.6020002365112305,0 C4.6020002365112305,2.5420000553131104 2.5409998893737793,4.6020002365112305 -0.0010000000474974513,4.6020002365112305 C-2.5429999828338623,4.6020002365112305 -4.6020002365112305,2.5420000553131104 -4.6020002365112305,0 C-4.6020002365112305,-2.5420000553131104 -2.5429999828338623,-4.6020002365112305 -0.0010000000474974513,-4.6020002365112305 C2.5409998893737793,-4.6020002365112305 4.6020002365112305,-2.5420000553131104 4.6020002365112305,0z"></path></g><g opacity="1" transform="matrix(1,0,0,1,53.07728958129883,66.68647766113281)"><path fill="rgb(52,48,75)" fill-opacity="1" d=" M2.3010001182556152,0 C2.3010001182556152,1.2710000276565552 1.2710000276565552,2.3010001182556152 0,2.3010001182556152 C-1.2699999809265137,2.3010001182556152 -2.3010001182556152,1.2710000276565552 -2.3010001182556152,0 C-2.3010001182556152,-1.2710000276565552 -1.2699999809265137,-2.3010001182556152 0,-2.3010001182556152 C1.2710000276565552,-2.3010001182556152 2.3010001182556152,-1.2710000276565552 2.3010001182556152,0z"></path></g><g opacity="1" transform="matrix(1,0,0,1,6.328208923339844,72.95744323730469)"><path fill="rgb(52,48,75)" fill-opacity="1" d=" M3.253999948501587,0 C3.253999948501587,1.7979999780654907 1.7970000505447388,3.253999948501587 0,3.253999948501587 C-1.7979999780654907,3.253999948501587 -3.253999948501587,1.7979999780654907 -3.253999948501587,0 C-3.253999948501587,-1.7970000505447388 -1.7979999780654907,-3.253999948501587 0,-3.253999948501587 C1.7970000505447388,-3.253999948501587 3.253999948501587,-1.7970000505447388 3.253999948501587,0z"></path></g><g opacity="1" transform="matrix(1,0,0,1,89.75374603271484,75.90345764160156)"><path fill="rgb(52,48,75)" fill-opacity="1" d=" M3.255000114440918,0 C3.255000114440918,1.7970000505447388 1.7970000505447388,3.255000114440918 0,3.255000114440918 C-1.7979999780654907,3.255000114440918 -3.255000114440918,1.7970000505447388 -3.255000114440918,0 C-3.255000114440918,-1.7979999780654907 -1.7979999780654907,-3.255000114440918 0,-3.255000114440918 C1.7970000505447388,-3.255000114440918 3.255000114440918,-1.7979999780654907 3.255000114440918,0z"></path></g></g><g transform="matrix(3.4999918937683105,0.007513636723160744,-0.007513636723160744,3.4999918937683105,169.93402099609375,196.61361694335938)" opacity="1" style="display: block;"><g opacity="1" transform="matrix(1,0,0,1,121.32603454589844,5.903837203979492)"><path fill="rgb(77,186,223)" fill-opacity="1" d=" M4.6020002365112305,0 C4.6020002365112305,2.5420000553131104 2.5409998893737793,4.6020002365112305 0,4.6020002365112305 C-2.5420000553131104,4.6020002365112305 -4.6020002365112305,2.5420000553131104 -4.6020002365112305,0 C-4.6020002365112305,-2.5420000553131104 -2.5420000553131104,-4.6020002365112305 0,-4.6020002365112305 C2.5409998893737793,-4.6020002365112305 4.6020002365112305,-2.5420000553131104 4.6020002365112305,0z"></path></g><g opacity="1" transform="matrix(1,0,0,1,74.7078857421875,8.103496551513672)"><path fill="rgb(77,186,223)" fill-opacity="1" d=" M5.2210001945495605,-2.3970000743865967 C6.544000148773193,0.4860000014305115 5.28000020980835,3.8959999084472656 2.3970000743865967,5.21999979019165 C-0.4869999885559082,6.543000221252441 -3.8970000743865967,5.28000020980835 -5.21999979019165,2.3959999084472656 C-6.544000148773193,-0.4860000014305115 -5.2789998054504395,-3.8959999084472656 -2.3959999084472656,-5.21999979019165 C0.4869999885559082,-6.543000221252441 3.8970000743865967,-5.28000020980835 5.2210001945495605,-2.3970000743865967z"></path></g><g opacity="1" transform="matrix(1,0,0,1,49.150962829589844,32.585289001464844)"><path fill="rgb(77,186,223)" fill-opacity="1" d=" M4.6020002365112305,0 C4.6020002365112305,2.5420000553131104 2.5420000553131104,4.6020002365112305 0,4.6020002365112305 C-2.5420000553131104,4.6020002365112305 -4.6020002365112305,2.5420000553131104 -4.6020002365112305,0 C-4.6020002365112305,-2.5420000553131104 -2.5420000553131104,-4.6020002365112305 0,-4.6020002365112305 C2.5420000553131104,-4.6020002365112305 4.6020002365112305,-2.5420000553131104 4.6020002365112305,0z"></path></g><g opacity="1" transform="matrix(1,0,0,1,27.92089080810547,70.45720672607422)"><path fill="rgb(77,186,223)" fill-opacity="1" d=" M4.6020002365112305,0 C4.6020002365112305,2.5420000553131104 2.5420000553131104,4.6020002365112305 0,4.6020002365112305 C-2.5420000553131104,4.6020002365112305 -4.6020002365112305,2.5420000553131104 -4.6020002365112305,0 C-4.6020002365112305,-2.5420000553131104 -2.5420000553131104,-4.6020002365112305 0,-4.6020002365112305 C2.5420000553131104,-4.6020002365112305 4.6020002365112305,-2.5420000553131104 4.6020002365112305,0z"></path></g><g opacity="1" transform="matrix(1,0,0,1,185.8090057373047,53.957794189453125)"><path fill="rgb(77,186,223)" fill-opacity="1" d=" M3.9860000610351562,0 C3.9860000610351562,2.2009999752044678 2.2009999752044678,3.984999895095825 0,3.984999895095825 C-2.2009999752044678,3.984999895095825 -3.9860000610351562,2.2009999752044678 -3.9860000610351562,0 C-3.9860000610351562,-2.2009999752044678 -2.2009999752044678,-3.984999895095825 0,-3.984999895095825 C2.2009999752044678,-3.984999895095825 3.9860000610351562,-2.2009999752044678 3.9860000610351562,0z"></path></g><g opacity="1" transform="matrix(1,0,0,1,9.232344627380371,106.43392944335938)"><path fill="rgb(77,186,223)" fill-opacity="1" d=" M6.078000068664551,0 C6.078000068664551,3.3559999465942383 3.3559999465942383,6.077000141143799 -0.0010000000474974513,6.077000141143799 C-3.3570001125335693,6.077000141143799 -6.078000068664551,3.3559999465942383 -6.078000068664551,0 C-6.078000068664551,-3.3559999465942383 -3.3570001125335693,-6.077000141143799 -0.0010000000474974513,-6.077000141143799 C3.3559999465942383,-6.077000141143799 6.078000068664551,-3.3559999465942383 6.078000068664551,0z"></path></g><g opacity="1" transform="matrix(1,0,0,1,165.07614135742188,14.870763778686523)"><path fill="rgb(77,186,223)" fill-opacity="1" d=" M-5.959000110626221,5.127999782562256 C-8.791000366210938,1.8370000123977661 -8.420000076293945,-3.125999927520752 -5.129000186920166,-5.958000183105469 C-1.8380000591278076,-8.791000366210938 3.125999927520752,-8.420000076293945 5.959000110626221,-5.129000186920166 C8.791000366210938,-1.8389999866485596 8.420000076293945,3.125999927520752 5.129000186920166,5.958000183105469 C1.8380000591278076,8.791000366210938 -3.125999927520752,8.418999671936035 -5.959000110626221,5.127999782562256z"></path></g><g opacity="1" transform="matrix(1,0,0,1,50.085269927978516,168.93441772460938)"><path fill="rgb(77,186,223)" fill-opacity="1" d=" M4.6020002365112305,-0.0010000000474974513 C4.6020002365112305,2.5409998893737793 2.5409998893737793,4.603000164031982 0,4.603000164031982 C-2.5420000553131104,4.603000164031982 -4.6020002365112305,2.5409998893737793 -4.6020002365112305,-0.0010000000474974513 C-4.6020002365112305,-2.5420000553131104 -2.5420000553131104,-4.6020002365112305 0,-4.6020002365112305 C2.5409998893737793,-4.6020002365112305 4.6020002365112305,-2.5420000553131104 4.6020002365112305,-0.0010000000474974513z"></path></g><g opacity="1" transform="matrix(1,0,0,1,94.12149810791016,193.14149475097656)"><path fill="rgb(77,186,223)" fill-opacity="1" d=" M6.710999965667725,0 C6.710999965667725,3.7060000896453857 3.7070000171661377,6.711999893188477 0,6.711999893188477 C-3.7070000171661377,6.711999893188477 -6.710999965667725,3.7060000896453857 -6.710999965667725,0 C-6.710999965667725,-3.7070000171661377 -3.7070000171661377,-6.711999893188477 0,-6.711999893188477 C3.7070000171661377,-6.711999893188477 6.710999965667725,-3.7070000171661377 6.710999965667725,0z"></path></g><g opacity="1" transform="matrix(1,0,0,1,148.9929962158203,185.11700439453125)"><path fill="rgb(77,186,223)" fill-opacity="1" d=" M4.603000164031982,-0.0010000000474974513 C4.603000164031982,2.5409998893737793 2.5409998893737793,4.6020002365112305 -0.0010000000474974513,4.6020002365112305 C-2.5429999828338623,4.6020002365112305 -4.603000164031982,2.5409998893737793 -4.603000164031982,-0.0010000000474974513 C-4.603000164031982,-2.5420000553131104 -2.5429999828338623,-4.603000164031982 -0.0010000000474974513,-4.603000164031982 C2.5409998893737793,-4.603000164031982 4.603000164031982,-2.5420000553131104 4.603000164031982,-0.0010000000474974513z"></path></g><g opacity="1" transform="matrix(1,0,0,1,176.3264617919922,159.49761962890625)"><path fill="rgb(77,186,223)" fill-opacity="1" d=" M7.2270002365112305,-0.0010000000474974513 C7.2270002365112305,3.990999937057495 3.992000102996826,7.2270002365112305 -0.0010000000474974513,7.2270002365112305 C-3.992000102996826,7.2270002365112305 -7.2270002365112305,3.990999937057495 -7.2270002365112305,-0.0010000000474974513 C-7.2270002365112305,-3.992000102996826 -3.992000102996826,-7.228000164031982 -0.0010000000474974513,-7.228000164031982 C3.992000102996826,-7.228000164031982 7.2270002365112305,-3.992000102996826 7.2270002365112305,-0.0010000000474974513z"></path></g><g opacity="1" transform="matrix(1,0,0,1,198.24159240722656,108.98539733886719)"><path fill="rgb(77,186,223)" fill-opacity="1" d=" M4.6020002365112305,-0.0010000000474974513 C4.6020002365112305,2.5409998893737793 2.5409998893737793,4.603000164031982 -0.0010000000474974513,4.603000164031982 C-2.5429999828338623,4.603000164031982 -4.6020002365112305,2.5409998893737793 -4.6020002365112305,-0.0010000000474974513 C-4.6020002365112305,-2.5429999828338623 -2.5429999828338623,-4.603000164031982 -0.0010000000474974513,-4.603000164031982 C2.5409998893737793,-4.603000164031982 4.6020002365112305,-2.5429999828338623 4.6020002365112305,-0.0010000000474974513z"></path></g><g opacity="1" transform="matrix(1,0,0,1,29.451000213623047,136.6529998779297)"><path fill="rgb(77,186,223)" fill-opacity="1" d=" M5.752999782562256,0 C5.752999782562256,3.177000045776367 3.1760001182556152,5.752999782562256 0,5.752999782562256 C-3.177999973297119,5.752999782562256 -5.752999782562256,3.177000045776367 -5.752999782562256,0 C-5.752999782562256,-3.177999973297119 -3.177999973297119,-5.752999782562256 0,-5.752999782562256 C3.1760001182556152,-5.752999782562256 5.752999782562256,-3.177999973297119 5.752999782562256,0z"></path></g></g></g></svg>
